# xmcd
#
# Track frame offsets:
#	150
#	16236
#	34280
#	52853
#	75403
#	98546
#	126088
#	154562
#	173260
#	191686
#	211979
#	226686
#	241215
#	255705
#
# Disc length: 3462 seconds
#
# Revision: 1
# Processed by: cddbd v1.5.2PL0 Copyright (c) Steve Scherf et al.
# Submitted via: audiograbber 1.83.01
#
DISCID=980d840e
DTITLE=Roy Mette - 12 Bars and the Blues
DYEAR=2005
DGENRE=Blues
TTITLE0=The Church of the Ringing Ears
TTITLE1=Gallows Pole
TTITLE2=Midnight Hour Blues
TTITLE3=It Must Be Love
TTITLE4=Zookeeper
TTITLE5=Cool Alligator
TTITLE6=Hangman's Lullaby
TTITLE7=Two White Horses
TTITLE8=Swing Low Sweet Chariot
TTITLE9=Aint That The Way We Were
TTITLE10=Madrid
TTITLE11=Graveyard Blues
TTITLE12=Red House
TTITLE13=12 Baas and the Blues
EXTD=
EXTT0=
EXTT1=
EXTT2=
EXTT3=
EXTT4=
EXTT5=
EXTT6=
EXTT7=
EXTT8=
EXTT9=
EXTT10=
EXTT11=
EXTT12=
EXTT13=
PLAYORDER=
